<svg width="72" height="72" viewBox="0 0 72 72" fill="none" xmlns="http://www.w3.org/2000/svg">
<circle cx="36" cy="36" r="36" fill="url(#paint0_linear_640_8072)"/>
<g clip-path="url(#clip0_640_8072)">
<g clip-path="url(#clip1_640_8072)">
<path d="M35.47 49C41.1017 49 45.6667 44.8966 45.6667 39.8333C45.6667 34.77 41.1017 30.6666 35.47 30.6666C29.84 30.6666 25.275 34.77 25.275 39.8333C25.275 41.1966 25.605 42.49 26.1983 43.6533L24 49L30.3733 47.7733C31.949 48.5857 33.6972 49.0065 35.47 49V49Z" stroke="white" stroke-width="2" stroke-linejoin="round"/>
<path d="M37.0067 54.2066C38.6869 55.1717 40.5924 55.6754 42.53 55.6666C44.3034 55.6731 46.0521 55.2524 47.6284 54.4399L54 55.6666L51.8 50.3199C52.4073 49.1381 52.7244 47.8286 52.725 46.4999C52.725 44.4249 51.9584 42.5116 50.6667 40.9749C49.4184 39.4916 47.68 38.3599 45.6667 37.7749" stroke="white" stroke-width="2" stroke-linecap="round" stroke-linejoin="round"/>
<path d="M40.6667 41.5C39.7462 41.5 39 40.7538 39 39.8333C39 38.9128 39.7462 38.1666 40.6667 38.1666C41.5872 38.1666 42.3334 38.9128 42.3334 39.8333C42.3334 40.7538 41.5872 41.5 40.6667 41.5Z" fill="white"/>
<path d="M35.6667 41.5C34.7462 41.5 34 40.7538 34 39.8333C34 38.9128 34.7462 38.1666 35.6667 38.1666C36.5872 38.1666 37.3334 38.9128 37.3334 39.8333C37.3334 40.7538 36.5872 41.5 35.6667 41.5Z" fill="white"/>
<path d="M30.6667 41.5C29.7462 41.5 29 40.7538 29 39.8333C29 38.9128 29.7462 38.1666 30.6667 38.1666C31.5872 38.1666 32.3334 38.9128 32.3334 39.8333C32.3334 40.7538 31.5872 41.5 30.6667 41.5Z" fill="white"/>
<path d="M37 34H50L56 40V23C56 20.8 54.2 19 52 19H37C34.8 19 33 20.8 33 23V30C33 32.2 34.8 34 37 34Z" fill="white"/>
<path d="M35 31H22L16 37V20C16 17.8 17.8 16 20 16H35C37.2 16 39 17.8 39 20V27C39 29.2 37.2 31 35 31Z" fill="white"/>
<path d="M24 48C26.7614 48 29 45.7614 29 43C29 40.2386 26.7614 38 24 38C21.2386 38 19 40.2386 19 43C19 45.7614 21.2386 48 24 48Z" fill="white"/>
<path d="M48 48C50.7614 48 53 45.7614 53 43C53 40.2386 50.7614 38 48 38C45.2386 38 43 40.2386 43 43C43 45.7614 45.2386 48 48 48Z" fill="white"/>
</g>
<path d="M32 54C32 54 29.8 50 24 50C18.2 50 16 54 16 54V56H32V54ZM56 54C56 54 53.8 50 48 50C42.2 50 40 54 40 54V56H56V54Z" fill="white"/>
</g>
<defs>
<linearGradient id="paint0_linear_640_8072" x1="36" y1="0" x2="36" y2="72" gradientUnits="userSpaceOnUse">
<stop stop-color="#FD4400"/>
<stop offset="0.357639" stop-color="#DB440C"/>
<stop offset="0.748264" stop-color="#95300A"/>
<stop offset="1" stop-color="#B44D27"/>
</linearGradient>
<clipPath id="clip0_640_8072">
<rect width="48" height="48" fill="white" transform="translate(12 12)"/>
</clipPath>
<clipPath id="clip1_640_8072">
<rect width="40" height="40" fill="white" transform="translate(19 24)"/>
</clipPath>
</defs>
</svg>
