<svg width="72" height="72" viewBox="0 0 72 72" fill="none" xmlns="http://www.w3.org/2000/svg">
<circle cx="36" cy="36" r="36" fill="url(#paint0_linear_637_8037)"/>
<path d="M31.764 42C38.522 42 44 37.076 44 31C44 24.924 38.522 20 31.764 20C25.008 20 19.53 24.924 19.53 31C19.53 32.636 19.926 34.188 20.638 35.584L18 42L25.648 40.528C27.5388 41.5029 29.6367 42.0078 31.764 42V42Z" stroke="white" stroke-width="2" stroke-linejoin="round"/>
<path d="M33.608 48.248C35.6242 49.4062 37.9108 50.0106 40.236 50C42.3639 50.0079 44.4625 49.503 46.354 48.528L54 50L51.36 43.584C52.0887 42.1658 52.4692 40.5945 52.47 39C52.47 36.51 51.55 34.214 50 32.37C48.502 30.59 46.416 29.232 44 28.53" stroke="white" stroke-width="2" stroke-linecap="round" stroke-linejoin="round"/>
<path d="M38 33C36.8954 33 36 32.1046 36 31C36 29.8954 36.8954 29 38 29C39.1046 29 40 29.8954 40 31C40 32.1046 39.1046 33 38 33Z" fill="white"/>
<path d="M32 33C30.8954 33 30 32.1046 30 31C30 29.8954 30.8954 29 32 29C33.1046 29 34 29.8954 34 31C34 32.1046 33.1046 33 32 33Z" fill="white"/>
<path d="M26 33C24.8954 33 24 32.1046 24 31C24 29.8954 24.8954 29 26 29C27.1046 29 28 29.8954 28 31C28 32.1046 27.1046 33 26 33Z" fill="white"/>
<defs>
<linearGradient id="paint0_linear_637_8037" x1="36" y1="0" x2="36" y2="72" gradientUnits="userSpaceOnUse">
<stop stop-color="#6F236F"/>
<stop offset="1" stop-color="#DF00DF"/>
</linearGradient>
</defs>
</svg>
