<svg width="705" height="577" viewBox="0 0 705 577" fill="none" xmlns="http://www.w3.org/2000/svg">
<g opacity="0.16">
<path d="M70.3156 363.49C32.0784 281.49 67.5552 184.019 149.555 145.782C231.555 107.544 329.027 143.021 367.264 225.021C405.501 307.021 370.024 404.493 288.024 442.73C206.024 480.967 108.553 445.49 70.3156 363.49Z" stroke="#707070" stroke-width="0.57888"/>
<path d="M100.529 428.284C62.36 346.429 97.8909 249.075 179.891 210.837C261.892 172.6 359.308 207.96 397.478 289.815C435.647 371.669 400.116 469.024 318.116 507.261C236.116 545.499 138.699 510.139 100.529 428.284Z" stroke="#707070" stroke-width="0.57888"/>
<path d="M247.954 359.539C209.785 277.684 245.316 180.33 327.316 142.092C409.317 103.855 506.733 139.215 544.903 221.069C583.072 302.924 547.541 400.278 465.541 438.516C383.54 476.753 286.124 441.393 247.954 359.539Z" stroke="#707070" stroke-width="0.57888"/>
</g>
<circle cx="354.5" cy="154.5" r="154.5" fill="url(#paint0_linear_903_8066)"/>
<circle cx="632.5" cy="236.5" r="72.5" fill="#800080"/>
<circle cx="405" cy="473" r="50" fill="#8A58FF"/>
<circle cx="608" cy="448" r="25" fill="#C85024"/>
<defs>
<linearGradient id="paint0_linear_903_8066" x1="354.5" y1="0" x2="354.5" y2="309" gradientUnits="userSpaceOnUse">
<stop stop-color="#6F236F"/>
<stop offset="1" stop-color="#DF00DF"/>
</linearGradient>
</defs>
</svg>
