<svg width="72" height="72" viewBox="0 0 72 72" fill="none" xmlns="http://www.w3.org/2000/svg">
<circle cx="36" cy="36" r="36" fill="url(#paint0_linear_640_8103)"/>
<path d="M54 32C47.499 32.3771 41.2466 34.6307 36 38.488C30.7534 34.6307 24.5011 32.3771 18 32V37.92C16.9374 37.9221 15.9191 38.3461 15.169 39.0989C14.4189 39.8516 13.9984 40.8714 14 41.934V43.942C14 46.16 18 48.358 18 48.358V52.372C23.312 52.7137 28.4349 54.4749 32.834 57.472C33.9448 58.2428 35.0025 59.0874 36 60C36.9975 59.0874 38.0552 58.2428 39.166 57.472C43.5651 54.4749 48.688 52.7137 54 52.372V47.956C55.0626 47.9539 56.081 47.5299 56.831 46.7771C57.5811 46.0244 58.0016 45.0046 58 43.942V41.934C58.0016 40.8714 57.5811 39.8516 56.831 39.0989C56.081 38.3461 55.0626 37.9221 54 37.92V32ZM36 54.844C31.852 51.8041 27.0629 49.7544 22 48.852V36.552C25.8802 37.3337 29.5641 38.8856 32.834 41.116C33.9448 41.8868 35.0025 42.7314 36 43.644C36.9975 42.7314 38.0552 41.8868 39.166 41.116C42.4357 38.8849 46.1197 37.3323 50 36.55V48.852C44.9371 49.7544 40.148 51.8041 36 54.844ZM34 28H38V30H34V28ZM34 20H38V22H34V20Z" fill="white"/>
<path d="M34 32.0001H38V34.0001H34V32.0001ZM30 22.0001C30.5305 22.0001 31.0392 21.7894 31.4143 21.4143C31.7893 21.0392 32 20.5305 32 20.0001C32.0019 19.7395 31.952 19.4812 31.8531 19.2402C31.7543 18.9991 31.6085 18.7801 31.4243 18.5958C31.24 18.4116 31.021 18.2658 30.78 18.167C30.5389 18.0682 30.2806 18.0182 30.02 18.0201C29.7587 18.0188 29.4997 18.0689 29.2577 18.1677C29.0158 18.2665 28.7957 18.412 28.61 18.5959C28.2349 18.9672 28.0227 19.4723 28.02 20.0001C28.0174 20.5279 28.2245 21.0351 28.5958 21.4101C28.9672 21.7852 29.4723 21.9974 30 22.0001Z" fill="white"/>
<path d="M42 22C43.1046 22 44 21.1046 44 20C44 18.8954 43.1046 18 42 18C40.8954 18 40 18.8954 40 20C40 21.1046 40.8954 22 42 22Z" fill="white"/>
<path d="M44 28H28C26.4092 27.9984 24.884 27.3658 23.7591 26.2409C22.6342 25.116 22.0016 23.5908 22 22V18C22.0016 16.4092 22.6342 14.884 23.7591 13.7591C24.884 12.6342 26.4092 12.0016 28 12H44C45.5908 12.0016 47.116 12.6342 48.2409 13.7591C49.3658 14.884 49.9984 16.4092 50 18V22C49.9984 23.5908 49.3658 25.116 48.2409 26.2409C47.116 27.3658 45.5908 27.9984 44 28ZM28 16C27.4697 16.0005 26.9613 16.2114 26.5864 16.5864C26.2114 16.9613 26.0005 17.4697 26 18V22C26.0005 22.5303 26.2114 23.0387 26.5864 23.4136C26.9613 23.7886 27.4697 23.9995 28 24H44C44.5303 23.9995 45.0387 23.7886 45.4136 23.4136C45.7886 23.0387 45.9995 22.5303 46 22V18C45.9995 17.4697 45.7886 16.9613 45.4136 16.5864C45.0387 16.2114 44.5303 16.0005 44 16H28Z" fill="white"/>
<defs>
<linearGradient id="paint0_linear_640_8103" x1="36" y1="0" x2="36" y2="72" gradientUnits="userSpaceOnUse">
<stop stop-color="#FD6825"/>
<stop offset="0.214694" stop-color="#FD6825" stop-opacity="0.785306"/>
<stop offset="0.469907" stop-color="#FD6825" stop-opacity="0.855079"/>
<stop offset="0.704286" stop-color="#FD6825" stop-opacity="0.919155"/>
<stop offset="1" stop-color="#FD6825"/>
</linearGradient>
</defs>
</svg>
