<svg width="615" height="570" viewBox="0 0 615 570" fill="none" xmlns="http://www.w3.org/2000/svg">
<g opacity="0.16">
<path d="M70.3156 356.49C32.0784 274.49 67.5552 177.019 149.555 138.782C231.555 100.544 329.027 136.021 367.264 218.021C405.501 300.021 370.024 397.493 288.024 435.73C206.024 473.967 108.553 438.49 70.3156 356.49Z" stroke="#707070" stroke-width="0.57888"/>
<path d="M100.529 421.284C62.36 339.429 97.8909 242.075 179.891 203.837C261.892 165.6 359.308 200.96 397.478 282.815C435.647 364.669 400.116 462.024 318.116 500.261C236.116 538.499 138.699 503.139 100.529 421.284Z" stroke="#707070" stroke-width="0.57888"/>
<path d="M247.954 352.539C209.785 270.684 245.316 173.33 327.316 135.092C409.317 96.8547 506.733 132.215 544.903 214.069C583.072 295.924 547.541 393.278 465.541 431.516C383.54 469.753 286.124 434.393 247.954 352.539Z" stroke="#707070" stroke-width="0.57888"/>
</g>
</svg>
