<svg width="72" height="72" viewBox="0 0 72 72" fill="none" xmlns="http://www.w3.org/2000/svg">
<circle cx="36" cy="36" r="36" fill="url(#paint0_linear_640_8090)"/>
<path d="M31.326 46H40.672M36 18V20M48.728 23.272L47.314 24.686M54 36H52M20 36H18M24.686 24.686L23.272 23.272M28.928 43.072C27.5297 41.6734 26.5776 39.8915 26.192 37.9518C25.8063 36.0121 26.0045 34.0015 26.7615 32.1744C27.5184 30.3473 28.8001 28.7857 30.4446 27.687C32.089 26.5883 34.0223 26.0019 36 26.0019C37.9777 26.0019 39.911 26.5883 41.5554 27.687C43.1999 28.7857 44.4816 30.3473 45.2385 32.1744C45.9955 34.0015 46.1937 36.0121 45.808 37.9518C45.4224 39.8915 44.4703 41.6734 43.072 43.072L41.976 44.166C41.3494 44.7927 40.8524 45.5367 40.5134 46.3555C40.1743 47.1742 39.9999 48.0518 40 48.938V50C40 51.0609 39.5786 52.0783 38.8284 52.8284C38.0783 53.5786 37.0609 54 36 54C34.9391 54 33.9217 53.5786 33.1716 52.8284C32.4214 52.0783 32 51.0609 32 50V48.938C32 47.148 31.288 45.43 30.024 44.166L28.928 43.072Z" stroke="white" stroke-width="2" stroke-linecap="round" stroke-linejoin="round"/>
<defs>
<linearGradient id="paint0_linear_640_8090" x1="36" y1="0" x2="36" y2="72" gradientUnits="userSpaceOnUse">
<stop stop-color="#FF0606"/>
<stop offset="0.214694" stop-color="#CD1616" stop-opacity="0.785306"/>
<stop offset="0.469907" stop-color="#B11B1B" stop-opacity="0.855079"/>
<stop offset="0.704286" stop-color="#FF0606" stop-opacity="0.919155"/>
<stop offset="1" stop-color="#A91717"/>
</linearGradient>
</defs>
</svg>
